# xmcd
#
# Track frame offsets:
#	150
#	10143
#	25066
#	36992
#	48015
#	60840
#	72990
#	83575
#	95640
#	106966
#	114766
#	126250
#
# Disc length: 1835 seconds
#
# Revision: 1
# Processed by: cddbd v1.5.2PL0 Copyright (c) Steve Scherf et al.
# Submitted via: audiograbber 1.83.01
#
DISCID=8a07290c
DTITLE=Treniers - On TV
DYEAR=1900
DGENRE=
TTITLE0=Go Go Go
TTITLE1=Rockin On Sunday
TTITLE2=Rockin Is Your Business
TTITLE3=This Is It
TTITLE4=Hadacol
TTITLE5=Get Out Of The Car
TTITLE6=Rock A Beatin Boogie
TTITLE7=Poon Tang
TTITLE8=Who Put The Uh In The Mambo
TTITLE9=Grab You
TTITLE10=I Got Love For You
TTITLE11=Mambo
EXTD=
EXTT0=
EXTT1=
EXTT2=
EXTT3=
EXTT4=
EXTT5=
EXTT6=
EXTT7=
EXTT8=
EXTT9=
EXTT10=
EXTT11=
PLAYORDER=
